<svg id="1" width="32" height="32" viewBox="0 0 32 32" fill="none" xmlns="http://www.w3.org/2000/svg">
	<path
		d="M26.5 19.9537C26.5 26.1803 22.1401 30.5 16 30.5C9.85989 30.5 5.5 26.1803 5.5 19.9537C5.5 16.7931 7.27087 11.3519 10.063 7.85674C10.6853 7.07769 11.8439 7.51212 12.0523 8.4922C12.5597 10.8783 13.5051 13.5888 14.7647 12.9622C17.2432 11.7291 17.288 6.16801 18.4169 2.23753C18.667 1.36649 19.7095 1.23844 20.1857 2.00648C23.2291 6.91535 26.5 16.4382 26.5 19.9537Z"
		fill="var(--yellow)" />
	<path
		d="M10.1915 17.8631C8.62379 20.6167 9.74775 24.251 12.7019 25.9806C15.6561 27.7103 19.3218 26.8802 20.8894 24.1266C21.7279 22.6539 23.0108 18.1852 20.9964 14.3288C20.6158 13.6003 19.6415 13.6185 19.1067 14.2393C14.2795 19.8433 11.5869 15.4121 10.1915 17.8631Z"
		fill="var(--orange)" />
</svg>