<svg id="1" width="32" height="32" viewBox="0 0 32 32" fill="none" xmlns="http://www.w3.org/2000/svg">
	<path
		d="M16 30.5C24.0081 30.5 30.5 24.0081 30.5 16C30.5 7.99187 24.0081 1.5 16 1.5C7.99187 1.5 1.5 7.99187 1.5 16C1.5 24.0081 7.99187 30.5 16 30.5Z"
		stroke="var(--fill)" stroke-width="3" stroke-linecap="round" stroke-linejoin="round" />
	<path
		d="M29 16C29 23.1797 23.1797 29 16 29C8.8203 29 3 23.1797 3 16C3 8.8203 8.8203 3 16 3C23.1797 3 29 8.8203 29 16Z"
		fill="var(--fill)" />
	<path
		d="M8.57143 16.1323L13.8114 20.6429L22.5 12.2857M29 16C29 23.1797 23.1797 29 16 29C8.8203 29 3 23.1797 3 16C3 8.8203 8.8203 3 16 3C23.1797 3 29 8.8203 29 16Z"
		stroke="var(--stroke)" stroke-width="3" stroke-linecap="round" stroke-linejoin="round" />
</svg>