<svg id="1" width="32" height="32" viewBox="0 0 32 32" fill="none" xmlns="http://www.w3.org/2000/svg">
	<path
		d="M5 15.2746V27C5 28.1046 5.89543 29 7 29H10.8571C11.9617 29 12.8571 28.1046 12.8571 27V20.2941C12.8571 19.1895 13.7526 18.2941 14.8571 18.2941H17.1429C18.2474 18.2941 19.1429 19.1896 19.1429 20.2941V27C19.1429 28.1046 20.0383 29 21.1429 29H25C26.1046 29 27 28.1046 27 27V15.2746C27 14.7587 26.8006 14.2627 26.4435 13.8903L17.4435 4.50527C16.6563 3.68433 15.3437 3.68433 14.5565 4.50527L5.55649 13.8903C5.19938 14.2627 5 14.7587 5 15.2746Z"
		stroke="var(--stroke)" stroke-width="3" />
</svg>