<svg id="1" width="32" height="32" viewBox="0 0 32 32" fill="none" xmlns="http://www.w3.org/2000/svg">
	<path
		d="M3.5 15.2746V27C3.5 28.933 5.067 30.5 7 30.5H10.8571C12.7901 30.5 14.3571 28.933 14.3571 27V20.2941C14.3571 20.018 14.581 19.7941 14.8571 19.7941H17.1429C17.419 19.7941 17.6429 20.018 17.6429 20.2941V27C17.6429 28.933 19.2099 30.5 21.1429 30.5H25C26.933 30.5 28.5 28.933 28.5 27V15.2746C28.5 14.3717 28.1511 13.5037 27.5261 12.8521L18.5261 3.46705C17.1484 2.0304 14.8516 2.0304 13.4738 3.46705L4.47385 12.8521C3.84892 13.5037 3.5 14.3717 3.5 15.2746Z"
		stroke="var(--fill)" stroke-width="3" />
	<path
		d="M5 15.2746V27C5 28.1046 5.89543 29 7 29H10.8571C11.9617 29 12.8571 28.1046 12.8571 27V20.2941C12.8571 19.1895 13.7526 18.2941 14.8571 18.2941H17.1429C18.2474 18.2941 19.1429 19.1896 19.1429 20.2941V27C19.1429 28.1046 20.0383 29 21.1429 29H25C26.1046 29 27 28.1046 27 27V15.2746C27 14.7587 26.8006 14.2627 26.4435 13.8903L17.4435 4.50527C16.6563 3.68433 15.3437 3.68433 14.5565 4.50527L5.55649 13.8903C5.19938 14.2627 5 14.7587 5 15.2746Z"
		fill="var(--fill)" stroke="var(--stroke)" stroke-width="3" />
</svg>