<svg id="1" width="32" height="32" viewBox="0 0 32 32" fill="none" xmlns="http://www.w3.org/2000/svg">
	<path fill-rule="evenodd" clip-rule="evenodd"
		d="M17.5 4C17.5 3.17157 16.8284 2.5 16 2.5C15.1716 2.5 14.5 3.17157 14.5 4V13.5C14.5 14.0523 14.0523 14.5 13.5 14.5H4C3.17157 14.5 2.5 15.1716 2.5 16C2.5 16.8284 3.17157 17.5 4 17.5H13.5C14.0523 17.5 14.5 17.9477 14.5 18.5V28C14.5 28.8284 15.1716 29.5 16 29.5C16.8284 29.5 17.5 28.8284 17.5 28V18.5C17.5 17.9477 17.9477 17.5 18.5 17.5H28C28.8284 17.5 29.5 16.8284 29.5 16C29.5 15.1716 28.8284 14.5 28 14.5H18.5C17.9477 14.5 17.5 14.0523 17.5 13.5V4Z"
		fill="var(--stroke)" />
</svg>