<svg id="1" width="32" height="32" viewBox="0 0 32 32" fill="none" xmlns="http://www.w3.org/2000/svg">
	<mask id="path-1-outside-1_96_17" maskUnits="userSpaceOnUse" x="0" y="0" width="32" height="32" fill="black">
		<rect fill="white" width="32" height="32" />
		<path
			d="M18.7576 3.78788C18.7576 3.35275 18.4048 3 17.9697 3H14.0303C13.5952 3 13.2424 3.35275 13.2424 3.78788V7.43942C13.2424 8.14135 12.3938 8.49287 11.8974 7.99654L9.31529 5.4144C9.0076 5.10671 8.50875 5.10671 8.20106 5.4144L5.41549 8.19997C5.1078 8.50765 5.1078 9.00651 5.41549 9.3142L7.99872 11.8974C8.49506 12.3938 8.14353 13.2424 7.44161 13.2424H3.78788C3.35275 13.2424 3 13.5952 3 14.0303V17.9697C3 18.4048 3.35275 18.7576 3.78788 18.7576H7.44061C8.14254 18.7576 8.49406 19.6062 7.99772 20.1026L5.41474 22.6856C5.10705 22.9932 5.10705 23.4921 5.41474 23.7998L8.20031 26.5854C8.50799 26.893 9.00685 26.893 9.31454 26.5854L11.8974 24.0025C12.3938 23.5061 13.2424 23.8577 13.2424 24.5596V28.2121C13.2424 28.6473 13.5952 29 14.0303 29H17.9697C18.4048 29 18.7576 28.6473 18.7576 28.2121V24.5584C18.7576 23.8565 19.6062 23.5049 20.1026 24.0013L22.6864 26.5851C22.994 26.8927 23.4929 26.8927 23.8006 26.5851L26.5862 23.7995C26.8938 23.4918 26.8938 22.9929 26.5862 22.6853L24.0035 20.1026C23.5071 19.6062 23.8587 18.7576 24.5606 18.7576H28.2121C28.6473 18.7576 29 18.4048 29 17.9697V14.0303C29 13.5952 28.6473 13.2424 28.2121 13.2424H24.5596C23.8577 13.2424 23.5061 12.3938 24.0025 11.8974L26.5854 9.31449C26.8931 9.00681 26.8931 8.50795 26.5854 8.20027L23.7998 5.41469C23.4921 5.10701 22.9933 5.10701 22.6856 5.41469L20.1026 7.99772C19.6062 8.49406 18.7576 8.14253 18.7576 7.44061V3.78788Z" />
		<path
			d="M19.7143 16C19.7143 18.0513 18.0513 19.7143 16 19.7143C13.9487 19.7143 12.2857 18.0513 12.2857 16C12.2857 13.9487 13.9487 12.2857 16 12.2857C18.0513 12.2857 19.7143 13.9487 19.7143 16Z" />
	</mask>
	<path
		d="M18.7576 3.78788C18.7576 3.35275 18.4048 3 17.9697 3H14.0303C13.5952 3 13.2424 3.35275 13.2424 3.78788V7.43942C13.2424 8.14135 12.3938 8.49287 11.8974 7.99654L9.31529 5.4144C9.0076 5.10671 8.50875 5.10671 8.20106 5.4144L5.41549 8.19997C5.1078 8.50765 5.1078 9.00651 5.41549 9.3142L7.99872 11.8974C8.49506 12.3938 8.14353 13.2424 7.44161 13.2424H3.78788C3.35275 13.2424 3 13.5952 3 14.0303V17.9697C3 18.4048 3.35275 18.7576 3.78788 18.7576H7.44061C8.14254 18.7576 8.49406 19.6062 7.99772 20.1026L5.41474 22.6856C5.10705 22.9932 5.10705 23.4921 5.41474 23.7998L8.20031 26.5854C8.50799 26.893 9.00685 26.893 9.31454 26.5854L11.8974 24.0025C12.3938 23.5061 13.2424 23.8577 13.2424 24.5596V28.2121C13.2424 28.6473 13.5952 29 14.0303 29H17.9697C18.4048 29 18.7576 28.6473 18.7576 28.2121V24.5584C18.7576 23.8565 19.6062 23.5049 20.1026 24.0013L22.6864 26.5851C22.994 26.8927 23.4929 26.8927 23.8006 26.5851L26.5862 23.7995C26.8938 23.4918 26.8938 22.9929 26.5862 22.6853L24.0035 20.1026C23.5071 19.6062 23.8587 18.7576 24.5606 18.7576H28.2121C28.6473 18.7576 29 18.4048 29 17.9697V14.0303C29 13.5952 28.6473 13.2424 28.2121 13.2424H24.5596C23.8577 13.2424 23.5061 12.3938 24.0025 11.8974L26.5854 9.31449C26.8931 9.00681 26.8931 8.50795 26.5854 8.20027L23.7998 5.41469C23.4921 5.10701 22.9933 5.10701 22.6856 5.41469L20.1026 7.99772C19.6062 8.49406 18.7576 8.14253 18.7576 7.44061V3.78788Z"
		fill="var(--fill)" />
	<path
		d="M19.7143 16C19.7143 18.0513 18.0513 19.7143 16 19.7143C13.9487 19.7143 12.2857 18.0513 12.2857 16C12.2857 13.9487 13.9487 12.2857 16 12.2857C18.0513 12.2857 19.7143 13.9487 19.7143 16Z"
		fill="var(--fill)" />
	<path
		d="M20.1026 7.99772L22.2239 10.119L22.2239 10.119L20.1026 7.99772ZM26.5854 9.31449L28.7067 11.4358L28.7067 11.4358L26.5854 9.31449ZM26.5854 8.20027L24.4641 10.3216L24.4641 10.3216L26.5854 8.20027ZM22.6864 26.5851L24.8077 24.4637L24.8077 24.4637L22.6864 26.5851ZM11.8974 24.0025L14.0188 26.1238L14.0188 26.1238L11.8974 24.0025ZM5.41474 22.6856L7.53606 24.8069L7.53606 24.8069L5.41474 22.6856ZM5.41474 23.7998L3.29342 25.9211L3.29342 25.9211L5.41474 23.7998ZM23.7998 5.41469L25.9212 3.29337L25.9212 3.29337L23.7998 5.41469ZM22.6856 5.41469L20.5643 3.29337L20.5643 3.29337L22.6856 5.41469ZM7.99772 20.1026L10.119 22.2239L10.119 22.2239L7.99772 20.1026ZM7.99872 11.8974L5.8774 14.0188L5.8774 14.0188L7.99872 11.8974ZM8.20031 26.5854L10.3216 24.464L10.3216 24.464L8.20031 26.5854ZM9.31454 26.5854L11.4359 28.7067L11.4359 28.7067L9.31454 26.5854ZM9.31529 5.4144L11.4366 3.29308L11.4366 3.29307L9.31529 5.4144ZM8.20106 5.4144L6.07974 3.29308L6.07974 3.29308L8.20106 5.4144ZM26.5862 22.6853L24.4648 24.8066L24.4648 24.8066L26.5862 22.6853ZM5.41549 8.19997L7.53681 10.3213L7.53681 10.3213L5.41549 8.19997ZM5.41549 9.3142L3.29417 11.4355L3.29417 11.4355L5.41549 9.3142ZM24.0025 11.8974L26.1238 14.0188L26.1238 14.0188L24.0025 11.8974ZM14.0303 6H17.9697V0H14.0303V6ZM7.53681 10.3213L10.3224 7.53572L6.07974 3.29308L3.29417 6.07865L7.53681 10.3213ZM6 17.9697V14.0303H0V17.9697H6ZM10.3216 24.464L7.53606 21.6785L3.29342 25.9211L6.07899 28.7067L10.3216 24.464ZM17.9697 26H14.0303V32H17.9697V26ZM24.4648 21.6782L21.6793 24.4637L25.9219 28.7064L28.7075 25.9208L24.4648 21.6782ZM26 14.0303V17.9697H32V14.0303H26ZM21.6785 7.53601L24.4641 10.3216L28.7067 6.07895L25.9212 3.29337L21.6785 7.53601ZM17.9812 5.8764C19.3748 4.48284 21.7576 5.46983 21.7576 7.44061H15.7576C15.7576 10.8152 19.8377 12.5053 22.2239 10.119L17.9812 5.8764ZM28.7067 11.4358C30.186 9.95656 30.186 7.5582 28.7067 6.07895L24.4641 10.3216C23.6002 9.4577 23.6002 8.05706 24.4641 7.19317L28.7067 11.4358ZM28.2121 21.7576C30.3041 21.7576 32 20.0617 32 17.9697H26C26 16.748 26.9904 15.7576 28.2121 15.7576V21.7576ZM20.565 28.7064C22.0443 30.1856 24.4426 30.1856 25.9219 28.7064L21.6793 24.4637C22.5431 23.5998 23.9438 23.5998 24.8077 24.4637L20.565 28.7064ZM21.7576 24.5584C21.7576 26.5292 19.3748 27.5161 17.9813 26.1226L22.2239 21.88C19.8377 19.4937 15.7576 21.1837 15.7576 24.5584H21.7576ZM17.9697 32C20.0617 32 21.7576 30.3041 21.7576 28.2121H15.7576C15.7576 26.9904 16.748 26 17.9697 26V32ZM10.2424 28.2121C10.2424 30.3041 11.9383 32 14.0303 32V26C15.252 26 16.2424 26.9904 16.2424 28.2121H10.2424ZM14.0188 26.1238C12.6252 27.5173 10.2424 26.5304 10.2424 24.5596H16.2424C16.2424 21.1849 12.1623 19.4949 9.77611 21.8811L14.0188 26.1238ZM3.29342 20.5642C1.81416 22.0435 1.81416 24.4418 3.29342 25.9211L7.53606 21.6785C8.39994 22.5424 8.39994 23.943 7.53606 24.8069L3.29342 20.5642ZM25.9212 3.29337C24.4419 1.81412 22.0435 1.81411 20.5643 3.29337L24.8069 7.53601C23.943 8.3999 22.5424 8.3999 21.6785 7.53601L25.9212 3.29337ZM7.44061 21.7576C5.46982 21.7576 4.48285 19.3748 5.8764 17.9812L10.119 22.2239C12.5053 19.8377 10.8153 15.7576 7.44061 15.7576V21.7576ZM0 17.9697C0 20.0617 1.69589 21.7576 3.78788 21.7576V15.7576C5.00961 15.7576 6 16.748 6 17.9697H0ZM32 14.0303C32 11.9383 30.3041 10.2424 28.2121 10.2424V16.2424C26.9904 16.2424 26 15.252 26 14.0303H32ZM5.8774 14.0188C4.48384 12.6252 5.47082 10.2424 7.44161 10.2424V16.2424C10.8162 16.2424 12.5063 12.1623 10.12 9.77611L5.8774 14.0188ZM6.07899 28.7067C7.55824 30.1859 9.95659 30.1859 11.4359 28.7067L7.19322 24.464C8.05711 23.6001 9.45775 23.6002 10.3216 24.464L6.07899 28.7067ZM26.1248 17.9812C27.5183 19.3748 26.5314 21.7576 24.5606 21.7576V15.7576C21.1859 15.7576 19.4959 19.8377 21.8821 22.2239L26.1248 17.9812ZM11.4366 3.29307C9.95735 1.81382 7.559 1.81382 6.07974 3.29308L10.3224 7.53572C9.45849 8.3996 8.05786 8.3996 7.19397 7.53572L11.4366 3.29307ZM28.7075 25.9208C30.1867 24.4415 30.1867 22.0432 28.7075 20.5639L24.4648 24.8066C23.6009 23.9427 23.6009 22.5421 24.4648 21.6782L28.7075 25.9208ZM10.2424 7.43942C10.2424 5.46864 12.6252 4.48165 14.0188 5.87522L9.77611 10.1179C12.1623 12.5041 16.2424 10.8141 16.2424 7.43942H10.2424ZM3.29417 6.07865C1.81491 7.5579 1.81491 9.95626 3.29417 11.4355L7.53681 7.19288C8.4007 8.05676 8.4007 9.4574 7.53681 10.3213L3.29417 6.07865ZM14.0303 0C11.9383 0 10.2424 1.69589 10.2424 3.78788H16.2424C16.2424 5.0096 15.252 6 14.0303 6V0ZM24.5596 10.2424C26.5304 10.2424 27.5173 12.6252 26.1238 14.0188L21.8811 9.77611C19.4949 12.1623 21.1849 16.2424 24.5596 16.2424V10.2424ZM3.78788 10.2424C1.69589 10.2424 0 11.9383 0 14.0303H6C6 15.252 5.0096 16.2424 3.78788 16.2424V10.2424ZM21.7576 3.78788C21.7576 1.69589 20.0617 0 17.9697 0V6C16.748 6 15.7576 5.0096 15.7576 3.78788H21.7576ZM15.7576 3.78788V7.44061H21.7576V3.78788H15.7576ZM16.2424 7.43942V3.78788H10.2424V7.43942H16.2424ZM7.19397 7.53572L9.77611 10.1179L14.0188 5.87522L11.4366 3.29308L7.19397 7.53572ZM10.12 9.77611L7.53681 7.19288L3.29417 11.4355L5.8774 14.0188L10.12 9.77611ZM3.78788 16.2424H7.44161V10.2424H3.78788V16.2424ZM7.44061 15.7576H3.78788V21.7576H7.44061V15.7576ZM7.53606 24.8069L10.119 22.2239L5.8764 17.9812L3.29342 20.5642L7.53606 24.8069ZM9.77611 21.8811L7.19322 24.464L11.4359 28.7067L14.0188 26.1238L9.77611 21.8811ZM16.2424 28.2121V24.5596H10.2424V28.2121H16.2424ZM15.7576 24.5584V28.2121H21.7576V24.5584H15.7576ZM24.8077 24.4637L22.2239 21.88L17.9813 26.1226L20.565 28.7064L24.8077 24.4637ZM21.8821 22.2239L24.4648 24.8066L28.7075 20.5639L26.1248 17.9812L21.8821 22.2239ZM28.2121 15.7576H24.5606V21.7576H28.2121V15.7576ZM24.5596 16.2424H28.2121V10.2424H24.5596V16.2424ZM24.4641 7.19317L21.8811 9.77611L26.1238 14.0188L28.7067 11.4358L24.4641 7.19317ZM22.2239 10.119L24.8069 7.53601L20.5643 3.29337L17.9812 5.8764L22.2239 10.119ZM16.7143 16C16.7143 16.3945 16.3945 16.7143 16 16.7143V22.7143C19.7082 22.7143 22.7143 19.7082 22.7143 16H16.7143ZM16 16.7143C15.6055 16.7143 15.2857 16.3945 15.2857 16H9.28571C9.28571 19.7082 12.2918 22.7143 16 22.7143V16.7143ZM15.2857 16C15.2857 15.6055 15.6055 15.2857 16 15.2857V9.28571C12.2918 9.28571 9.28571 12.2918 9.28571 16H15.2857ZM16 15.2857C16.3945 15.2857 16.7143 15.6055 16.7143 16H22.7143C22.7143 12.2918 19.7082 9.28571 16 9.28571V15.2857Z"
		fill="var(--fill)" mask="url(#path-1-outside-1_96_17)" />
	<path
		d="M20.1026 7.99772L21.1632 9.05838L21.1632 9.05838L20.1026 7.99772ZM26.5854 9.31449L27.6461 10.3752L27.6461 10.3752L26.5854 9.31449ZM26.5854 8.20027L25.5247 9.26093L25.5247 9.26093L26.5854 8.20027ZM22.6864 26.5851L23.747 25.5244L23.747 25.5244L22.6864 26.5851ZM11.8974 24.0025L12.9581 25.0631L12.9581 25.0631L11.8974 24.0025ZM5.41474 22.6856L6.4754 23.7462L6.4754 23.7462L5.41474 22.6856ZM5.41474 23.7998L4.35408 24.8604L4.35408 24.8604L5.41474 23.7998ZM23.7998 5.41469L24.8605 4.35403L24.8605 4.35403L23.7998 5.41469ZM22.6856 5.41469L21.6249 4.35403L21.6249 4.35403L22.6856 5.41469ZM7.99772 20.1026L9.05839 21.1632L9.05839 21.1632L7.99772 20.1026ZM7.99872 11.8974L6.93806 12.9581L6.93806 12.9581L7.99872 11.8974ZM8.20031 26.5854L9.26097 25.5247L9.26097 25.5247L8.20031 26.5854ZM9.31454 26.5854L10.3752 27.646L10.3752 27.646L9.31454 26.5854ZM9.31529 5.4144L10.376 4.35374L10.3759 4.35374L9.31529 5.4144ZM8.20106 5.4144L7.1404 4.35374L7.1404 4.35374L8.20106 5.4144ZM26.5862 22.6853L25.5255 23.7459L25.5255 23.7459L26.5862 22.6853ZM5.41549 8.19997L6.47615 9.26063L6.47615 9.26063L5.41549 8.19997ZM5.41549 9.3142L4.35483 10.3749L4.35483 10.3749L5.41549 9.3142ZM24.0025 11.8974L25.0631 12.9581L25.0631 12.9581L24.0025 11.8974ZM14.0303 4.5H17.9697V1.5H14.0303V4.5ZM6.47615 9.26063L9.26172 6.47506L7.1404 4.35374L4.35483 7.13931L6.47615 9.26063ZM4.5 17.9697V14.0303H1.5V17.9697H4.5ZM9.26097 25.5247L6.4754 22.7391L4.35408 24.8604L7.13965 27.646L9.26097 25.5247ZM17.9697 27.5H14.0303V30.5H17.9697V27.5ZM25.5255 22.7388L22.7399 25.5244L24.8612 27.6457L27.6468 24.8601L25.5255 22.7388ZM27.5 14.0303V17.9697H30.5V14.0303H27.5ZM22.7392 6.47535L25.5247 9.26093L27.6461 7.13961L24.8605 4.35403L22.7392 6.47535ZM19.0419 6.93706C19.4905 6.48845 20.2576 6.80618 20.2576 7.44061H17.2576C17.2576 9.47889 19.7219 10.4997 21.1632 9.05838L19.0419 6.93706ZM27.6461 10.3752C28.5395 9.48168 28.5395 8.03308 27.6461 7.13961L25.5247 9.26093C25.2466 8.98282 25.2466 8.53193 25.5247 8.25383L27.6461 10.3752ZM28.2121 20.2576C29.4757 20.2576 30.5 19.2333 30.5 17.9697H27.5C27.5 17.5764 27.8188 17.2576 28.2121 17.2576V20.2576ZM21.6257 27.6457C22.5192 28.5392 23.9678 28.5392 24.8612 27.6457L22.7399 25.5244C23.018 25.2463 23.4689 25.2463 23.747 25.5244L21.6257 27.6457ZM20.2576 24.5584C20.2576 25.1928 19.4905 25.5105 19.0419 25.0619L21.1632 22.9406C19.722 21.4993 17.2576 22.5201 17.2576 24.5584H20.2576ZM17.9697 30.5C19.2333 30.5 20.2576 29.4757 20.2576 28.2121H17.2576C17.2576 27.8188 17.5764 27.5 17.9697 27.5V30.5ZM11.7424 28.2121C11.7424 29.4757 12.7667 30.5 14.0303 30.5V27.5C14.4236 27.5 14.7424 27.8188 14.7424 28.2121H11.7424ZM12.9581 25.0631C12.5095 25.5117 11.7424 25.194 11.7424 24.5596H14.7424C14.7424 22.5213 12.2781 21.5005 10.8368 22.9418L12.9581 25.0631ZM4.35408 21.6249C3.4606 22.5184 3.4606 23.967 4.35408 24.8604L6.4754 22.7391C6.7535 23.0172 6.7535 23.4681 6.4754 23.7462L4.35408 21.6249ZM24.8605 4.35403C23.967 3.46056 22.5184 3.46056 21.6249 4.35403L23.7463 6.47535C23.4682 6.75345 23.0173 6.75345 22.7392 6.47535L24.8605 4.35403ZM7.44061 20.2576C6.80618 20.2576 6.48845 19.4905 6.93706 19.0419L9.05839 21.1632C10.4997 19.7219 9.47889 17.2576 7.44061 17.2576V20.2576ZM1.5 17.9697C1.5 19.2333 2.52432 20.2576 3.78788 20.2576V17.2576C4.18118 17.2576 4.5 17.5764 4.5 17.9697H1.5ZM30.5 14.0303C30.5 12.7667 29.4757 11.7424 28.2121 11.7424V14.7424C27.8188 14.7424 27.5 14.4236 27.5 14.0303H30.5ZM6.93806 12.9581C6.48945 12.5095 6.80718 11.7424 7.44161 11.7424V14.7424C9.47989 14.7424 10.5007 12.2781 9.05938 10.8368L6.93806 12.9581ZM7.13965 27.646C8.03312 28.5395 9.48172 28.5395 10.3752 27.646L8.25388 25.5247C8.53198 25.2466 8.98287 25.2466 9.26097 25.5247L7.13965 27.646ZM25.0641 19.0419C25.5127 19.4905 25.195 20.2576 24.5606 20.2576V17.2576C22.5223 17.2576 21.5015 19.7219 22.9428 21.1632L25.0641 19.0419ZM10.3759 4.35374C9.48248 3.46026 8.03387 3.46026 7.1404 4.35374L9.26172 6.47506C8.98362 6.75316 8.53273 6.75316 8.25463 6.47506L10.3759 4.35374ZM27.6468 24.8601C28.5403 23.9667 28.5403 22.5181 27.6468 21.6246L25.5255 23.7459C25.2474 23.4678 25.2474 23.0169 25.5255 22.7388L27.6468 24.8601ZM11.7424 7.43942C11.7424 6.80499 12.5095 6.48726 12.9581 6.93588L10.8368 9.0572C12.2781 10.4985 14.7424 9.4777 14.7424 7.43942H11.7424ZM4.35483 7.13931C3.46136 8.03278 3.46136 9.48138 4.35483 10.3749L6.47615 8.25354C6.75425 8.53164 6.75425 8.98253 6.47615 9.26063L4.35483 7.13931ZM14.0303 1.5C12.7667 1.5 11.7424 2.52432 11.7424 3.78788H14.7424C14.7424 4.18117 14.4236 4.5 14.0303 4.5V1.5ZM24.5596 11.7424C25.194 11.7424 25.5117 12.5095 25.0631 12.9581L22.9418 10.8368C21.5005 12.2781 22.5213 14.7424 24.5596 14.7424V11.7424ZM3.78788 11.7424C2.52432 11.7424 1.5 12.7667 1.5 14.0303H4.5C4.5 14.4236 4.18117 14.7424 3.78788 14.7424V11.7424ZM20.2576 3.78788C20.2576 2.52432 19.2333 1.5 17.9697 1.5V4.5C17.5764 4.5 17.2576 4.18117 17.2576 3.78788H20.2576ZM17.2576 3.78788V7.44061H20.2576V3.78788H17.2576ZM14.7424 7.43942V3.78788H11.7424V7.43942H14.7424ZM8.25463 6.47506L10.8368 9.0572L12.9581 6.93588L10.376 4.35374L8.25463 6.47506ZM9.05938 10.8368L6.47615 8.25354L4.35483 10.3749L6.93806 12.9581L9.05938 10.8368ZM3.78788 14.7424H7.44161V11.7424H3.78788V14.7424ZM7.44061 17.2576H3.78788V20.2576H7.44061V17.2576ZM6.4754 23.7462L9.05839 21.1632L6.93706 19.0419L4.35408 21.6249L6.4754 23.7462ZM10.8368 22.9418L8.25388 25.5247L10.3752 27.646L12.9581 25.0631L10.8368 22.9418ZM14.7424 28.2121V24.5596H11.7424V28.2121H14.7424ZM17.2576 24.5584V28.2121H20.2576V24.5584H17.2576ZM23.747 25.5244L21.1632 22.9406L19.0419 25.0619L21.6257 27.6457L23.747 25.5244ZM22.9428 21.1632L25.5255 23.7459L27.6468 21.6246L25.0641 19.0419L22.9428 21.1632ZM28.2121 17.2576H24.5606V20.2576H28.2121V17.2576ZM24.5596 14.7424H28.2121V11.7424H24.5596V14.7424ZM25.5247 8.25383L22.9418 10.8368L25.0631 12.9581L27.6461 10.3752L25.5247 8.25383ZM21.1632 9.05838L23.7463 6.47535L21.6249 4.35403L19.0419 6.93706L21.1632 9.05838ZM18.2143 16C18.2143 17.2229 17.2229 18.2143 16 18.2143V21.2143C18.8798 21.2143 21.2143 18.8798 21.2143 16H18.2143ZM16 18.2143C14.7771 18.2143 13.7857 17.2229 13.7857 16H10.7857C10.7857 18.8798 13.1202 21.2143 16 21.2143V18.2143ZM13.7857 16C13.7857 14.7771 14.7771 13.7857 16 13.7857V10.7857C13.1202 10.7857 10.7857 13.1202 10.7857 16H13.7857ZM16 13.7857C17.2229 13.7857 18.2143 14.7771 18.2143 16H21.2143C21.2143 13.1202 18.8798 10.7857 16 10.7857V13.7857Z"
		fill="var(--stroke)" />
</svg>