<svg id="1" width="32" height="32" viewBox="0 0 32 32" fill="none" xmlns="http://www.w3.org/2000/svg">
	<path
		d="M20.1026 7.99772L21.1632 9.05838L21.1632 9.05838L20.1026 7.99772ZM26.5854 9.31449L27.6461 10.3752L27.6461 10.3752L26.5854 9.31449ZM26.5854 8.20027L25.5247 9.26093L25.5247 9.26093L26.5854 8.20027ZM22.6864 26.5851L23.747 25.5244L23.747 25.5244L22.6864 26.5851ZM11.8974 24.0025L12.9581 25.0631L12.9581 25.0631L11.8974 24.0025ZM5.41474 22.6856L6.4754 23.7462L6.4754 23.7462L5.41474 22.6856ZM5.41474 23.7998L4.35408 24.8604L4.35408 24.8604L5.41474 23.7998ZM23.7998 5.41469L24.8605 4.35403L24.8605 4.35403L23.7998 5.41469ZM22.6856 5.41469L21.6249 4.35403L21.6249 4.35403L22.6856 5.41469ZM7.99772 20.1026L9.05839 21.1632L9.05839 21.1632L7.99772 20.1026ZM7.99872 11.8974L6.93806 12.9581L6.93806 12.9581L7.99872 11.8974ZM8.20031 26.5854L9.26097 25.5247L9.26097 25.5247L8.20031 26.5854ZM9.31454 26.5854L10.3752 27.646L10.3752 27.646L9.31454 26.5854ZM9.31529 5.4144L10.376 4.35374L10.3759 4.35374L9.31529 5.4144ZM8.20106 5.4144L7.1404 4.35374L7.1404 4.35374L8.20106 5.4144ZM26.5862 22.6853L25.5255 23.7459L25.5255 23.7459L26.5862 22.6853ZM5.41549 8.19997L6.47615 9.26063L6.47615 9.26063L5.41549 8.19997ZM5.41549 9.3142L4.35483 10.3749L4.35483 10.3749L5.41549 9.3142ZM24.0025 11.8974L25.0631 12.9581L25.0631 12.9581L24.0025 11.8974ZM14.0303 4.5H17.9697V1.5H14.0303V4.5ZM6.47615 9.26063L9.26172 6.47506L7.1404 4.35374L4.35483 7.13931L6.47615 9.26063ZM4.5 17.9697V14.0303H1.5V17.9697H4.5ZM9.26097 25.5247L6.4754 22.7391L4.35408 24.8604L7.13965 27.646L9.26097 25.5247ZM17.9697 27.5H14.0303V30.5H17.9697V27.5ZM25.5255 22.7388L22.7399 25.5244L24.8612 27.6457L27.6468 24.8601L25.5255 22.7388ZM27.5 14.0303V17.9697H30.5V14.0303H27.5ZM22.7392 6.47535L25.5247 9.26093L27.6461 7.13961L24.8605 4.35403L22.7392 6.47535ZM19.0419 6.93706C19.4905 6.48845 20.2576 6.80618 20.2576 7.44061H17.2576C17.2576 9.47889 19.7219 10.4997 21.1632 9.05838L19.0419 6.93706ZM27.6461 10.3752C28.5395 9.48168 28.5395 8.03308 27.6461 7.13961L25.5247 9.26093C25.2466 8.98282 25.2466 8.53193 25.5247 8.25383L27.6461 10.3752ZM28.2121 20.2576C29.4757 20.2576 30.5 19.2333 30.5 17.9697H27.5C27.5 17.5764 27.8188 17.2576 28.2121 17.2576V20.2576ZM21.6257 27.6457C22.5192 28.5392 23.9678 28.5392 24.8612 27.6457L22.7399 25.5244C23.018 25.2463 23.4689 25.2463 23.747 25.5244L21.6257 27.6457ZM20.2576 24.5584C20.2576 25.1928 19.4905 25.5105 19.0419 25.0619L21.1632 22.9406C19.722 21.4993 17.2576 22.5201 17.2576 24.5584H20.2576ZM17.9697 30.5C19.2333 30.5 20.2576 29.4757 20.2576 28.2121H17.2576C17.2576 27.8188 17.5764 27.5 17.9697 27.5V30.5ZM11.7424 28.2121C11.7424 29.4757 12.7667 30.5 14.0303 30.5V27.5C14.4236 27.5 14.7424 27.8188 14.7424 28.2121H11.7424ZM12.9581 25.0631C12.5095 25.5117 11.7424 25.194 11.7424 24.5596H14.7424C14.7424 22.5213 12.2781 21.5005 10.8368 22.9418L12.9581 25.0631ZM4.35408 21.6249C3.4606 22.5184 3.4606 23.967 4.35408 24.8604L6.4754 22.7391C6.7535 23.0172 6.7535 23.4681 6.4754 23.7462L4.35408 21.6249ZM24.8605 4.35403C23.967 3.46056 22.5184 3.46056 21.6249 4.35403L23.7463 6.47535C23.4682 6.75345 23.0173 6.75345 22.7392 6.47535L24.8605 4.35403ZM7.44061 20.2576C6.80618 20.2576 6.48845 19.4905 6.93706 19.0419L9.05839 21.1632C10.4997 19.7219 9.47889 17.2576 7.44061 17.2576V20.2576ZM1.5 17.9697C1.5 19.2333 2.52432 20.2576 3.78788 20.2576V17.2576C4.18118 17.2576 4.5 17.5764 4.5 17.9697H1.5ZM30.5 14.0303C30.5 12.7667 29.4757 11.7424 28.2121 11.7424V14.7424C27.8188 14.7424 27.5 14.4236 27.5 14.0303H30.5ZM6.93806 12.9581C6.48945 12.5095 6.80718 11.7424 7.44161 11.7424V14.7424C9.47989 14.7424 10.5007 12.2781 9.05938 10.8368L6.93806 12.9581ZM7.13965 27.646C8.03312 28.5395 9.48172 28.5395 10.3752 27.646L8.25388 25.5247C8.53198 25.2466 8.98287 25.2466 9.26097 25.5247L7.13965 27.646ZM25.0641 19.0419C25.5127 19.4905 25.195 20.2576 24.5606 20.2576V17.2576C22.5223 17.2576 21.5015 19.7219 22.9428 21.1632L25.0641 19.0419ZM10.3759 4.35374C9.48248 3.46026 8.03387 3.46026 7.1404 4.35374L9.26172 6.47506C8.98362 6.75316 8.53273 6.75316 8.25463 6.47506L10.3759 4.35374ZM27.6468 24.8601C28.5403 23.9667 28.5403 22.5181 27.6468 21.6246L25.5255 23.7459C25.2474 23.4678 25.2474 23.0169 25.5255 22.7388L27.6468 24.8601ZM11.7424 7.43942C11.7424 6.80499 12.5095 6.48726 12.9581 6.93588L10.8368 9.0572C12.2781 10.4985 14.7424 9.4777 14.7424 7.43942H11.7424ZM4.35483 7.13931C3.46136 8.03278 3.46136 9.48138 4.35483 10.3749L6.47615 8.25354C6.75425 8.53164 6.75425 8.98253 6.47615 9.26063L4.35483 7.13931ZM14.0303 1.5C12.7667 1.5 11.7424 2.52432 11.7424 3.78788H14.7424C14.7424 4.18117 14.4236 4.5 14.0303 4.5V1.5ZM24.5596 11.7424C25.194 11.7424 25.5117 12.5095 25.0631 12.9581L22.9418 10.8368C21.5005 12.2781 22.5213 14.7424 24.5596 14.7424V11.7424ZM3.78788 11.7424C2.52432 11.7424 1.5 12.7667 1.5 14.0303H4.5C4.5 14.4236 4.18117 14.7424 3.78788 14.7424V11.7424ZM20.2576 3.78788C20.2576 2.52432 19.2333 1.5 17.9697 1.5V4.5C17.5764 4.5 17.2576 4.18117 17.2576 3.78788H20.2576ZM17.2576 3.78788V7.44061H20.2576V3.78788H17.2576ZM14.7424 7.43942V3.78788H11.7424V7.43942H14.7424ZM8.25463 6.47506L10.8368 9.0572L12.9581 6.93588L10.376 4.35374L8.25463 6.47506ZM9.05938 10.8368L6.47615 8.25354L4.35483 10.3749L6.93806 12.9581L9.05938 10.8368ZM3.78788 14.7424H7.44161V11.7424H3.78788V14.7424ZM7.44061 17.2576H3.78788V20.2576H7.44061V17.2576ZM6.4754 23.7462L9.05839 21.1632L6.93706 19.0419L4.35408 21.6249L6.4754 23.7462ZM10.8368 22.9418L8.25388 25.5247L10.3752 27.646L12.9581 25.0631L10.8368 22.9418ZM14.7424 28.2121V24.5596H11.7424V28.2121H14.7424ZM17.2576 24.5584V28.2121H20.2576V24.5584H17.2576ZM23.747 25.5244L21.1632 22.9406L19.0419 25.0619L21.6257 27.6457L23.747 25.5244ZM22.9428 21.1632L25.5255 23.7459L27.6468 21.6246L25.0641 19.0419L22.9428 21.1632ZM28.2121 17.2576H24.5606V20.2576H28.2121V17.2576ZM24.5596 14.7424H28.2121V11.7424H24.5596V14.7424ZM25.5247 8.25383L22.9418 10.8368L25.0631 12.9581L27.6461 10.3752L25.5247 8.25383ZM21.1632 9.05838L23.7463 6.47535L21.6249 4.35403L19.0419 6.93706L21.1632 9.05838ZM18.2143 16C18.2143 17.2229 17.2229 18.2143 16 18.2143V21.2143C18.8798 21.2143 21.2143 18.8798 21.2143 16H18.2143ZM16 18.2143C14.7771 18.2143 13.7857 17.2229 13.7857 16H10.7857C10.7857 18.8798 13.1202 21.2143 16 21.2143V18.2143ZM13.7857 16C13.7857 14.7771 14.7771 13.7857 16 13.7857V10.7857C13.1202 10.7857 10.7857 13.1202 10.7857 16H13.7857ZM16 13.7857C17.2229 13.7857 18.2143 14.7771 18.2143 16H21.2143C21.2143 13.1202 18.8798 10.7857 16 10.7857V13.7857Z"
		fill="var(--stroke)" />
</svg>