<svg id="1" width="32" height="32" viewBox="0 0 32 32" fill="none" xmlns="http://www.w3.org/2000/svg">
	<path fill-rule="evenodd" clip-rule="evenodd"
		d="M4 2.5C4.82843 2.5 5.5 3.17157 5.5 4V26.5H28C28.8284 26.5 29.5 27.1716 29.5 28C29.5 28.8284 28.8284 29.5 28 29.5H5C3.61929 29.5 2.5 28.3807 2.5 27V4C2.5 3.17157 3.17157 2.5 4 2.5ZM26.9762 9.86111C27.6052 10.4002 27.678 11.3472 27.1389 11.9762L21.7807 18.2274C20.891 19.2654 19.3324 19.3962 18.2821 18.521L14.092 15.0293L9.06066 20.0607C8.47487 20.6464 7.52513 20.6464 6.93934 20.0607C6.35355 19.4749 6.35355 18.5251 6.93934 17.9393L12.2936 12.5851C13.2079 11.6708 14.6685 11.6045 15.6618 12.4323L19.8238 15.9006L24.8611 10.0238C25.4002 9.39482 26.3472 9.32198 26.9762 9.86111Z"
		stroke="var(--fill)" stroke-width="3" stroke-linecap="round" stroke-linejoin="round" />
	<path
		d="M4 4V27C4 27.5523 4.44772 28 5 28H28M8 19L13.3543 13.6457C13.72 13.28 14.3042 13.2535 14.7016 13.5846L19.2424 17.3686C19.6625 17.7187 20.2859 17.6664 20.6418 17.2512L26 11"
		stroke="var(--stroke)" stroke-width="3" stroke-linecap="round" stroke-linejoin="round" />
</svg>