<svg id="1" width="32" height="32" viewBox="0 0 32 32" fill="none" xmlns="http://www.w3.org/2000/svg">
	<path fill-rule="evenodd" clip-rule="evenodd"
		d="M13.7607 25.3471C10.8244 24.3208 6.19533 24.4594 4.09785 24.5895C3.50736 24.6261 3 24.16 3 23.5683V6.07832C3 5.56457 3.38441 5.13657 3.89702 5.10241C5.88537 4.96995 10.7266 4.78669 13.7607 5.84712C14.757 6.19535 15.5585 6.67769 16 7.33999C16.4415 6.67769 17.243 6.19535 18.2393 5.84712C21.2734 4.78669 26.1146 4.96995 28.103 5.10241C28.6156 5.13657 29 5.56457 29 6.07832V23.5683C29 24.16 28.4926 24.6261 27.9022 24.5895C25.8047 24.4594 21.1756 24.3208 18.2393 25.3471C17.9785 25.4383 17.7311 25.5386 17.5 25.6489C16.8481 25.9602 16.326 26.351 16 26.84C15.674 26.351 15.1519 25.9602 14.5 25.6489C14.2689 25.5386 14.0215 25.4383 13.7607 25.3471ZM16 3.54402C15.5563 3.31778 15.1145 3.14055 14.7051 2.99935C13.3853 2.54408 11.92 2.30025 10.5668 2.16534C7.8491 1.89437 5.07707 2.01715 3.6976 2.10905C1.54216 2.25265 0 4.05304 0 6.07832V23.5683C0 25.9314 2.00823 27.7248 4.28352 27.5838C5.62767 27.5004 7.97179 27.4211 10.1295 27.6521C11.2135 27.7681 12.1266 27.9504 12.7966 28.1882C13.3376 28.3802 13.5147 28.5352 13.5338 28.5482C14.0935 29.3563 15.0147 29.84 16 29.84C16.9853 29.84 17.9065 29.3563 18.4662 28.5482C18.4852 28.5352 18.6624 28.3802 19.2034 28.1882C19.8734 27.9504 20.7865 27.7681 21.8705 27.6521C24.0282 27.4211 26.3723 27.5004 27.7165 27.5838C29.9918 27.7248 32 25.9314 32 23.5683V6.07832C32 4.05304 30.4578 2.25265 28.3024 2.10905C26.9229 2.01715 24.1509 1.89437 21.4332 2.16534C20.08 2.30025 18.6147 2.54408 17.2949 2.99935C16.8855 3.14055 16.4437 3.31778 16 3.54402Z"
		fill="var(--fill)" />
	<path
		d="M27.9022 24.5895C25.093 24.4153 17.7428 24.2258 16 26.84C14.2572 24.2258 6.90703 24.4153 4.09785 24.5895C3.50736 24.6261 3 24.16 3 23.5683V6.07832C3 5.56457 3.38441 5.13657 3.89702 5.10241C6.53832 4.92645 14.2139 4.66085 16 7.33999C17.7861 4.66085 25.4617 4.92645 28.103 5.10241C28.6156 5.13657 29 5.56457 29 6.07832V23.5683C29 24.16 28.4926 24.6261 27.9022 24.5895Z"
		fill="var(--fill)" />
	<path fill-rule="evenodd" clip-rule="evenodd"
		d="M4.5 6.56855V23.0643C5.99753 22.987 8.34567 22.9354 10.6085 23.1776C11.8714 23.3128 13.1697 23.5456 14.3018 23.9474C14.3677 23.9708 14.4338 23.995 14.5 24.0201V7.90143C14.251 7.69283 13.8497 7.4645 13.2377 7.25336C12.3796 6.95735 11.2981 6.76055 10.1204 6.64314C8.04732 6.43645 5.87055 6.49324 4.5 6.56855ZM17.5 7.90143V24.0201C17.5662 23.995 17.6323 23.9708 17.6982 23.9474C18.8303 23.5456 20.1286 23.3128 21.3915 23.1776C23.6543 22.9354 26.0025 22.987 27.5 23.0643V6.56855C26.1295 6.49324 23.9527 6.43645 21.8796 6.64314C20.7019 6.76055 19.6204 6.95735 18.7623 7.25336C18.1503 7.4645 17.749 7.69283 17.5 7.90143ZM16 5.28056C15.4436 4.90348 14.8222 4.62646 14.216 4.41736C13.0501 4.01517 11.7127 3.78702 10.418 3.65794C7.82299 3.39921 5.14737 3.51579 3.79731 3.60573C2.46328 3.69461 1.5 4.8088 1.5 6.07832V23.5683C1.5 25.0457 2.7578 26.1755 4.19069 26.0866C5.56506 26.0014 8.00703 25.9163 10.2892 26.1606C11.4328 26.283 12.4743 26.4821 13.2984 26.7746C14.1534 27.0781 14.5794 27.4133 14.7519 27.672C15.0301 28.0893 15.4985 28.34 16 28.34C16.5015 28.34 16.9699 28.0893 17.2481 27.672C17.4206 27.4133 17.8466 27.0781 18.7016 26.7746C19.5257 26.4821 20.5672 26.283 21.7108 26.1606C23.993 25.9163 26.4349 26.0014 27.8093 26.0866C29.2422 26.1755 30.5 25.0457 30.5 23.5683V6.07832C30.5 4.8088 29.5367 3.69461 28.2027 3.60573C26.8526 3.51579 24.177 3.39921 21.582 3.65794C20.2873 3.78702 18.9499 4.01517 17.784 4.41736C17.1778 4.62646 16.5564 4.90348 16 5.28056Z"
		fill="var(--stroke)" />
</svg>