<svg id="1" width="32" height="32" viewBox="0 0 32 32" fill="none" xmlns="http://www.w3.org/2000/svg">
	<path
		d="M11.9509 7.62107L10.3558 9.23855C9.64943 9.95482 9.50935 11.0525 9.91229 11.9794C13.1892 19.5174 7.48846 20.9548 6.18983 21.1549C5.39057 21.2002 4.60107 21.5325 3.98934 22.1529C2.67022 23.4905 2.67022 25.6592 3.98934 26.9968C5.30845 28.3344 7.44717 28.3344 8.76628 26.9968C9.37801 26.3765 9.70606 25.5774 9.75042 24.7654C9.94781 23.4486 11.3653 17.6679 18.799 20.9908C19.7131 21.3994 20.7956 21.2573 21.502 20.5411L23.0971 18.9236M11.9509 7.62107L13.5432 6.00642C16.1815 3.33119 20.4589 3.33119 23.0971 6.00642L28.6702 11.6577C29.1099 12.1035 29.1099 12.8264 28.6702 13.2723L23.0971 18.9236M11.9509 7.62107L23.0971 18.9236"
		stroke="var(--stroke)" stroke-width="3" stroke-linejoin="round" />
</svg>