<svg id="1" width="32" height="32" viewBox="0 0 32 32" fill="none" xmlns="http://www.w3.org/2000/svg">
	<path fill-rule="evenodd" clip-rule="evenodd"
		d="M12.4752 4.95317C15.7009 1.68228 20.9395 1.68228 24.1651 4.95317L29.7382 10.6044C30.7539 11.6343 30.7539 13.2956 29.7382 14.3256L22.57 21.5943C21.3727 22.8084 19.6019 22.9927 18.1869 22.3602C16.4841 21.5991 15.2577 21.4194 14.3974 21.4887C13.5638 21.5559 12.993 21.862 12.5725 22.246C11.6841 23.057 11.3405 24.3407 11.243 24.9299C11.1622 26.0621 10.6938 27.1785 9.8343 28.05C7.92776 29.9833 4.82787 29.9833 2.92132 28.05C1.02623 26.1284 1.02623 23.0213 2.92132 21.0996C3.78151 20.2274 4.89107 19.7468 6.01998 19.6629C6.59387 19.5649 7.84887 19.2198 8.64522 18.3229C9.02498 17.8952 9.33283 17.3084 9.40031 16.4478C9.46977 15.5618 9.28904 14.3082 8.53665 12.5774C7.92241 11.1644 8.09637 9.39342 9.28777 8.1853L12.4752 4.95317ZM22.0291 7.05967C19.9783 4.98011 16.6621 4.98011 14.6112 7.05967L14.0576 7.62107L23.0971 16.7873L27.3597 12.465L22.0291 7.05967ZM20.9904 18.9236L11.9509 9.75731L11.4238 10.2918C11.2025 10.5162 11.0963 10.9406 11.2879 11.3814C12.174 13.4196 12.5095 15.1725 12.3911 16.6823C12.3137 17.6704 12.0441 18.519 11.649 19.238C12.3548 18.8453 13.1874 18.5765 14.1563 18.4984C15.6587 18.3773 17.3971 18.7211 19.4112 19.6214C19.8243 19.806 20.2186 19.7062 20.434 19.4878L20.9904 18.9236ZM9.28789 21.6164C8.1073 22.3099 6.93263 22.5581 6.41833 22.6374C6.37073 22.6448 6.3228 22.6498 6.27471 22.6525C5.83426 22.6775 5.39905 22.8596 5.05736 23.2061C4.31421 23.9597 4.31421 25.19 5.05736 25.9435C5.78904 26.6855 6.96658 26.6855 7.69826 25.9435C8.04135 25.5956 8.22733 25.1472 8.25265 24.6836C8.25522 24.6366 8.26001 24.5897 8.26699 24.5431C8.34499 24.0228 8.59157 22.8206 9.28789 21.6164Z"
		stroke="var(--fill)" stroke-width="3" stroke-linejoin="round" />
	<path
		d="M8.76628 26.9968C7.44717 28.3344 5.30845 28.3344 3.98934 26.9968C2.67022 25.6592 2.67022 23.4905 3.98934 22.1529C4.60107 21.5325 5.39057 21.2002 6.18983 21.1549C7.48846 20.9548 13.1892 19.5174 9.91229 11.9794C9.50935 11.0525 9.64943 9.95482 10.3558 9.23855L11.9509 7.62107L13.5432 6.00642C16.1815 3.33119 20.4589 3.33119 23.0971 6.00642L28.6702 11.6577C29.1099 12.1035 29.1099 12.8264 28.6702 13.2723L23.0971 18.9236L21.502 20.5411C20.7956 21.2573 19.7131 21.3994 18.799 20.9908C11.3653 17.6679 9.94781 23.4486 9.75042 24.7654C9.70606 25.5774 9.37801 26.3765 8.76628 26.9968Z"
		fill="var(--fill)" />
	<path
		d="M11.9509 7.62107L10.3558 9.23855C9.64943 9.95482 9.50935 11.0525 9.91229 11.9794C13.1892 19.5174 7.48846 20.9548 6.18983 21.1549C5.39057 21.2002 4.60107 21.5325 3.98934 22.1529C2.67022 23.4905 2.67022 25.6592 3.98934 26.9968C5.30845 28.3344 7.44717 28.3344 8.76628 26.9968C9.37801 26.3765 9.70606 25.5774 9.75042 24.7654C9.94781 23.4486 11.3653 17.6679 18.799 20.9908C19.7131 21.3994 20.7956 21.2573 21.502 20.5411L23.0971 18.9236M11.9509 7.62107L13.5432 6.00642C16.1815 3.33119 20.4589 3.33119 23.0971 6.00642L28.6702 11.6577C29.1099 12.1035 29.1099 12.8264 28.6702 13.2723L23.0971 18.9236M11.9509 7.62107L23.0971 18.9236"
		stroke="var(--stroke)" stroke-width="3" stroke-linejoin="round" />
</svg>