<svg id="1" width="32" height="32" viewBox="0 0 32 32" fill="none" xmlns="http://www.w3.org/2000/svg">
	<path fill-rule="evenodd" clip-rule="evenodd"
		d="M14.0002 4.75V5.75C14.0002 6.57843 13.3286 7.25 12.5002 7.25C11.6718 7.25 11.0002 6.57843 11.0002 5.75V4.25C11.0002 2.86929 12.1195 1.75 13.5002 1.75H18.5002C19.8809 1.75 21.0002 2.86929 21.0002 4.25V5.75C21.0002 6.57843 20.3286 7.25 19.5002 7.25C18.6718 7.25 18.0002 6.57843 18.0002 5.75V4.75H14.0002ZM4.69465 10.6302C4.46165 9.11577 5.63335 7.75 7.16558 7.75H24.8346C26.3668 7.75 27.5385 9.11575 27.3055 10.6301L24.6132 28.1301C24.4256 29.3497 23.3762 30.25 22.1423 30.25H9.8581C8.62418 30.25 7.57482 29.3497 7.38718 28.1302L4.69465 10.6302ZM7.74839 10.75L10.2871 27.25H21.7133L24.2518 10.75H7.74839ZM13.0002 12.75C13.8286 12.75 14.5002 13.4216 14.5002 14.25V22.25C14.5002 23.0784 13.8286 23.75 13.0002 23.75C12.1718 23.75 11.5002 23.0784 11.5002 22.25V14.25C11.5002 13.4216 12.1718 12.75 13.0002 12.75ZM19.0002 12.75C19.8286 12.75 20.5002 13.4216 20.5002 14.25V22.25C20.5002 23.0784 19.8286 23.75 19.0002 23.75C18.1718 23.75 17.5002 23.0784 17.5002 22.25V14.25C17.5002 13.4216 18.1718 12.75 19.0002 12.75Z"
		fill="var(--stroke)" stroke="var(--fill)" stroke-width="3" stroke-linecap="round" stroke-linejoin="round" />
	<path
		d="M22.1423 28.75H9.85815C9.36459 28.75 8.94484 28.3899 8.86978 27.9021L6.17726 10.4021C6.08405 9.79631 6.55274 9.25 7.16563 9.25H24.8346C25.4475 9.25 25.9162 9.7963 25.823 10.4021L23.1307 27.9021C23.0556 28.3899 22.6359 28.75 22.1423 28.75Z"
		fill="var(--fill)" />
	<path
		d="M12.5002 5.75V4.25C12.5002 3.69772 12.948 3.25 13.5002 3.25H18.5002C19.0525 3.25 19.5002 3.69772 19.5002 4.25V5.75M13.0002 22.25V14.25M19.0002 22.25V14.25M7.16563 9.25H24.8346C25.4475 9.25 25.9162 9.7963 25.823 10.4021L23.1307 27.9021C23.0556 28.3899 22.6359 28.75 22.1423 28.75H9.85815C9.36459 28.75 8.94484 28.3899 8.86978 27.9021L6.17726 10.4021C6.08405 9.79631 6.55274 9.25 7.16563 9.25Z"
		stroke="var(--stroke)" stroke-width="3" stroke-linecap="round" stroke-linejoin="round" />
</svg>