<svg width="52" height="52" viewBox="0 0 52 52" fill="none" xmlns="http://www.w3.org/2000/svg">
<path d="M21.4311 28.7515C22.776 24.5155 22.3725 16.1928 10 16.7909C10.6724 32.4893 18.069 30.2466 21.4311 28.7515Z" fill="#29B440" stroke="#29B440" stroke-width="3"/>
<path d="M30.281 22.2093C34.7208 22.4119 42.6554 19.8682 38.8755 8.07201C23.8861 12.7846 27.9667 19.3487 30.281 22.2093Z" fill="#29B440" stroke="#29B440" stroke-width="3"/>
<path d="M23.2618 43.9359C22.9793 42.0088 23.0639 38.2515 24.5893 34.354M24.5893 34.354C25.4115 32.2533 26.849 30.3884 28.4795 28.1942C30.11 26 32.2841 20.891 32.2841 17.8473M24.5893 34.354C24.5816 32.5289 23.3922 28.1942 18.6963 25.4565" stroke="#7F4D13" stroke-width="3" stroke-linecap="round" stroke-linejoin="round"/>
</svg>
