<svg width="52" height="52" viewBox="0 0 52 52" fill="none" xmlns="http://www.w3.org/2000/svg">
<path d="M21.8083 33.6396C22.727 30.6083 22.4514 24.6526 14 25.0806C14.4593 36.3144 19.5118 34.7095 21.8083 33.6396Z" fill="#29B440" stroke="#29B440" stroke-width="3"/>
<path d="M26.1094 18.0856C28.0966 15.5252 29.9165 9.72761 21.2982 7.02093C17.8048 17.9342 23.4318 18.2621 26.1094 18.0856Z" fill="#29B440" stroke="#29B440" stroke-width="3"/>
<path d="M31.2497 30.0471C34.3557 30.9733 40.4189 30.5724 39.8241 21.5586C28.3863 22.2503 30.1164 27.6148 31.2497 30.0471Z" fill="#29B440" stroke="#29B440" stroke-width="3"/>
<path d="M23.3625 44.8945C23.1441 43.5155 23.2095 40.8268 24.3884 38.0377M24.3884 38.0377C24.3824 36.7316 23.4632 33.6297 19.834 31.6706M24.3884 38.0377C24.9595 36.6866 25.3973 35.0365 25.7106 33.2264M25.0847 15.1407C26.4263 19.613 26.7395 27.2823 25.7106 33.2264M25.7106 33.2264C28.4769 29.9593 31.8911 28.7536 33.2524 28.5591" stroke="#7F4D13" stroke-width="3" stroke-linecap="round" stroke-linejoin="round"/>
</svg>
