<svg width="52" height="52" viewBox="0 0 52 52" fill="none" xmlns="http://www.w3.org/2000/svg">
<path d="M21.1381 29.0527C21.7426 26.9582 21.5613 22.8432 16 23.1389C16.3022 30.9007 19.6269 29.7919 21.1381 29.0527Z" fill="#29B440" stroke="#29B440" stroke-width="3"/>
<path d="M30.4662 30.7269C32.6316 31.3726 36.8586 31.0931 36.4439 24.8091C28.47 25.2913 29.6761 29.0312 30.4662 30.7269Z" fill="#29B440" stroke="#29B440" stroke-width="3"/>
<path d="M27.2464 13.02C27.4701 10.7716 26.3945 6.67408 20.303 8.27214C22.2877 16.0102 25.7312 14.1171 27.2464 13.02Z" fill="#29B440" stroke="#29B440" stroke-width="3"/>
<path d="M28.3596 20.3361C30.5132 21.0199 34.7446 20.8148 34.4405 14.5244C26.4593 14.8663 27.5995 18.6268 28.3596 20.3361Z" fill="#29B440" stroke="#29B440" stroke-width="3"/>
<path d="M25.4753 46.7721C25.3263 45.7981 25.4753 41.5171 25.4753 41.5171M25.4753 41.5171C26.6697 27.4056 20.2998 26.9935 20.2998 26.9935M25.4753 41.5171C25.4681 39.8708 25.6887 39.3974 25.9025 38.119M27.8243 10.2248C27.8243 13.5212 26.6046 33.9207 25.9025 38.119M25.9025 38.119C27.0413 31.3096 30.2528 29.8779 31.049 29.0538" stroke="#7F4D13" stroke-width="3" stroke-linecap="round" stroke-linejoin="round"/>
</svg>
