<svg width="52" height="52" viewBox="0 0 52 52" fill="none" xmlns="http://www.w3.org/2000/svg">
<path d="M21.1346 27.2761C22.7436 26.0417 24.8799 22.8605 20.5527 20.0113C16.4934 25.9897 19.5949 26.9952 21.1346 27.2761Z" fill="#29B440" stroke="#29B440" stroke-width="3"/>
<path d="M20.3213 28.3569C18.2941 28.4138 14.6986 29.7389 16.5342 34.5837C23.3273 32.1197 21.404 29.487 20.3213 28.3569Z" fill="#29B440" stroke="#29B440" stroke-width="3"/>
<path d="M27.5932 33.5056C29.6076 34.1063 33.54 33.8463 33.1542 28.0003C25.7361 28.4489 26.8581 31.9281 27.5932 33.5056Z" fill="#29B440" stroke="#29B440" stroke-width="3"/>
<path d="M26.4625 15.6005C26.6705 13.5087 25.6699 9.69681 20.003 11.1835C21.8493 18.3822 25.0528 16.6211 26.4625 15.6005Z" fill="#29B440" stroke="#29B440" stroke-width="3"/>
<path d="M30.3935 20.1809C30.4231 22.2828 31.8479 25.9572 37.3106 23.8398C34.6628 16.8958 31.6788 19.0075 30.3935 20.1809Z" fill="#29B440" stroke="#29B440" stroke-width="3"/>
<path d="M35.5489 14.6578C36.7904 16.3541 40.0802 18.5242 43.3069 13.6341C37.1265 9.50699 35.9171 12.9568 35.5489 14.6578Z" fill="#29B440" stroke="#29B440" stroke-width="3"/>
<path d="M15.094 25.7264C13.6208 24.3326 10.142 22.726 8.0125 27.449C14.5573 30.5125 15.06 27.2911 15.094 25.7264Z" fill="#29B440" stroke="#29B440" stroke-width="3"/>
<path d="M26.8148 46C26.7608 45.6474 26.7489 40.3458 26.7544 34M26.8148 11.5C26.8148 11.5 26.7888 17.79 26.7706 25M26.7544 34C20.5509 27.2 15.6667 24.8333 14 24.5M26.7544 34C26.7569 31.094 26.7631 27.969 26.7706 25M26.7706 25C30.5541 17.8 36.1667 14 38.5 13" stroke="#7F4D13" stroke-width="3" stroke-linecap="round" stroke-linejoin="round"/>
</svg>
