<svg width="52" height="52" viewBox="0 0 52 52" fill="none" xmlns="http://www.w3.org/2000/svg">
<path d="M36.3286 9.74499C33.8376 8.76036 29.9736 12.3272 29.9736 12.3272C29.9736 12.3272 26.2865 8.32511 23.6186 9.09944C21.2323 9.79203 19.8055 14.2639 19.8055 14.2639C19.8055 14.2639 16.2807 10.5886 14.086 11.6817C11.8135 12.8134 12.1794 16.2005 12.1794 16.2005C12.1794 16.2005 8.91216 15.851 7.731 17.4916C6.66442 18.9731 9.63737 24.5928 9.63737 24.5928C9.63737 24.5928 6.97815 26.0114 7.73081 28.4661C8.46143 30.8489 12.8149 31.0483 12.8149 31.0483C12.8149 31.0483 14.213 35.3742 15.9925 35.5672C17.8719 35.7709 20.441 33.6305 20.441 33.6305C20.441 33.6305 21.6286 35.8375 22.9831 36.2127C24.4974 36.6322 26.7961 34.9216 26.7961 34.9216C26.7961 34.9216 29.1337 37.6417 30.6091 36.8583C31.7935 36.2293 31.8801 33.6305 31.8801 33.6305L35.0576 35.5672C36.2985 36.3235 37.5996 32.9849 37.5996 32.9849C37.5996 32.9849 40.1842 34.5218 41.4126 33.6305C42.6411 32.7392 42.0481 29.7572 42.0481 29.7572C42.0481 29.7572 46.3612 27.7302 46.4967 25.2383C46.607 23.2089 43.9546 20.7194 43.9546 20.7194C43.9546 20.7194 46.2009 16.5014 44.5901 14.9094C43.1671 13.503 39.5061 14.9094 39.5061 14.9094C39.5061 14.9094 38.5106 10.6075 36.3286 9.74499Z" fill="#29B440" stroke="#29B440" stroke-width="3"/>
<path d="M27.5979 17C27.5979 16.1716 26.9263 15.5 26.0979 15.5C25.2694 15.5 24.5979 16.1716 24.5979 17H27.5979ZM38.5 23.6064C39.3284 23.6064 40 22.9348 40 22.1064C40 21.278 39.3284 20.6064 38.5 20.6064V23.6064ZM14.8674 22.567C14.0643 22.364 13.2486 22.8506 13.0457 23.6538C12.8428 24.457 13.3294 25.2726 14.1326 25.4756L14.8674 22.567ZM26.0979 41.8936C25.12 40.7562 25.1191 40.7569 25.1183 40.7576C25.118 40.7579 25.1171 40.7586 25.1165 40.7592C25.1154 40.7602 25.1142 40.7612 25.1129 40.7623C25.1105 40.7644 25.108 40.7666 25.1054 40.7689C25.1001 40.7735 25.0946 40.7785 25.0887 40.7838C25.0769 40.7944 25.0638 40.8065 25.0495 40.8201C25.0209 40.8472 24.9875 40.8803 24.9499 40.9196C24.8749 40.9984 24.7838 41.1022 24.6829 41.2336C24.4806 41.4972 24.2415 41.8687 24.0134 42.3682C23.555 43.3717 23.1577 44.8543 23.1577 46.9615H26.1577C26.1577 45.2389 26.4805 44.1875 26.7422 43.6146C26.8741 43.3258 26.995 43.1484 27.0628 43.0602C27.0969 43.0157 27.1183 42.9929 27.122 42.989C27.1239 42.987 27.1214 42.9897 27.1139 42.9969C27.1101 43.0004 27.1051 43.0051 27.0988 43.0108C27.0956 43.0137 27.0921 43.0168 27.0883 43.0202C27.0863 43.0218 27.0843 43.0236 27.0823 43.0254C27.0812 43.0263 27.0801 43.0273 27.0791 43.0282C27.0785 43.0287 27.0777 43.0294 27.0774 43.0296C27.0766 43.0303 27.0757 43.0311 26.0979 41.8936ZM26.0979 41.8936C25.1653 43.0685 25.1645 43.0678 25.1636 43.0672C25.1633 43.0669 25.1625 43.0663 25.1619 43.0658C25.1608 43.0649 25.1598 43.0641 25.1587 43.0632C25.1566 43.0615 25.1545 43.0599 25.1526 43.0583C25.1487 43.0551 25.1452 43.0523 25.1421 43.0496C25.1358 43.0444 25.1308 43.0401 25.1273 43.037C25.1201 43.0307 25.1182 43.0288 25.121 43.0315C25.1265 43.0368 25.1507 43.0608 25.1881 43.1058C25.2625 43.1952 25.3924 43.3716 25.5333 43.6565C25.8121 44.2201 26.1577 45.2565 26.1577 46.9615H29.1577C29.1577 44.8367 28.7234 43.3392 28.2223 42.3262C27.9732 41.8229 27.7132 41.4504 27.4951 41.188C27.3863 41.0571 27.2886 40.9545 27.2088 40.8771C27.1689 40.8385 27.1335 40.8062 27.1035 40.7799C27.0885 40.7668 27.0748 40.7551 27.0626 40.7449C27.0565 40.7399 27.0507 40.7351 27.0454 40.7308C27.0427 40.7286 27.0401 40.7265 27.0376 40.7245C27.0364 40.7235 27.0351 40.7225 27.0339 40.7215C27.0333 40.7211 27.0324 40.7203 27.0321 40.7201C27.0313 40.7194 27.0304 40.7187 26.0979 41.8936ZM24.5979 17V25.2979H27.5979V17H24.5979ZM27.08 26.4316C27.2685 26.2683 27.738 25.9824 28.5382 25.6392C29.3035 25.3109 30.2697 24.9728 31.3604 24.6681C33.5508 24.0562 36.1438 23.6064 38.5 23.6064V20.6064C35.8036 20.6064 32.9324 21.114 30.5532 21.7787C29.3592 22.1123 28.2644 22.4923 27.3556 22.8821C26.4817 23.257 25.6641 23.6891 25.1157 24.1641L27.08 26.4316ZM24.5979 25.2979V28.4894H27.5979V25.2979H24.5979ZM24.5979 28.4894V41.8936H27.5979V28.4894H24.5979ZM27.5979 28.4894C27.5979 27.8601 27.2344 27.4505 27.1329 27.3389C26.979 27.1696 26.807 27.0366 26.6722 26.9413C26.3936 26.7445 26.0415 26.5486 25.6714 26.362C24.9167 25.9816 23.8899 25.5427 22.735 25.0958C20.4198 24.1998 17.4619 23.2225 14.8674 22.567L14.1326 25.4756C16.5908 26.0967 19.4318 27.0343 21.6523 27.8936C22.7653 28.3243 23.6906 28.7232 24.3211 29.0409C24.6435 29.2034 24.8422 29.3216 24.9413 29.3916C24.9953 29.4298 24.9689 29.4183 24.9134 29.3572C24.9102 29.3537 24.5979 29.0389 24.5979 28.4894H27.5979Z" fill="#7F4D13"/>
</svg>
